<svg width="460" height="238" viewBox="0 0 460 238" fill="none" xmlns="http://www.w3.org/2000/svg">
<path d="M3.26583 1.19521C2.82136 0.496117 1.89431 0.289701 1.19521 0.734172C0.496117 1.17864 0.289701 2.10569 0.734172 2.80479L3.26583 1.19521ZM65.6809 70.3569L64.7365 71.5222L65.6809 70.3569ZM146.21 113.697L146.369 112.205L146.323 112.2L146.276 112.198L146.21 113.697ZM177.599 85.4135L179.099 85.3794L177.599 85.4135ZM146.21 54.1961L146.439 52.7138L146.21 54.1961ZM111.912 90.9342L113.411 90.9917L111.912 90.9342ZM226.211 215.17L226.737 213.765L226.211 215.17ZM459.406 212.491C459.694 211.714 459.298 210.851 458.521 210.563L445.863 205.87C445.087 205.582 444.223 205.978 443.935 206.755C443.648 207.532 444.044 208.395 444.82 208.683L456.072 212.855L451.901 224.106C451.613 224.883 452.009 225.746 452.786 226.034C453.562 226.322 454.426 225.926 454.714 225.149L459.406 212.491ZM0.734172 2.80479C17.468 29.125 40.7518 52.0831 64.7365 71.5222L66.6254 69.1916C42.7786 49.8642 19.7615 27.1409 3.26583 1.19521L0.734172 2.80479ZM64.7365 71.5222C89.1565 91.3141 112.388 113.71 146.144 115.195L146.276 112.198C113.745 110.767 91.3993 89.2703 66.6254 69.1916L64.7365 71.5222ZM146.05 115.188C158.236 116.491 166.65 112.31 171.941 106.06C177.169 99.883 179.245 91.8103 179.099 85.3794L176.099 85.4475C176.232 91.2745 174.328 98.5957 169.651 104.122C165.034 109.576 157.615 113.407 146.369 112.205L146.05 115.188ZM179.099 85.3794C178.689 67.3327 162.493 55.2007 146.439 52.7138L145.98 55.6785C161.188 58.0343 175.734 69.3796 176.099 85.4475L179.099 85.3794ZM146.439 52.7138C134.677 50.8918 125.774 55.1629 119.779 62.6118C113.846 69.9841 110.816 80.3816 110.413 90.8767L113.411 90.9917C113.797 80.9258 116.704 71.2175 122.116 64.4927C127.467 57.8445 135.319 54.027 145.98 55.6785L146.439 52.7138ZM110.413 90.8767C109.2 122.53 124.987 149.075 147.505 170.093C170.018 191.105 199.378 206.718 225.685 216.574L226.737 213.765C200.672 203.999 171.692 188.564 149.552 167.9C127.419 147.241 112.242 121.48 113.411 90.9917L110.413 90.8767ZM225.685 216.574C286.114 239.217 377.563 250.545 458.626 213.333L457.374 210.606C377.26 247.383 286.683 236.226 226.737 213.765L225.685 216.574Z" fill="#dc3545"/>
<defs>
<linearGradient id="paint0_linear_7999_9098" x1="460.387" y1="185.323" x2="153.895" y2="-140.766" gradientUnits="userSpaceOnUse">
<stop stop-color="#FF6666"/>
<stop offset="0.40211" stop-color="#FF867C"/>
</linearGradient>
</defs>
</svg>
