<svg width="120" height="120" viewBox="0 0 120 120" fill="none" xmlns="http://www.w3.org/2000/svg">
<path d="M80.1819 11.22C81.7042 7.54056 85.9489 5.75496 89.4193 7.70729C100.939 14.1878 110.061 24.3331 115.262 36.6304C121.403 51.1533 121.581 67.5101 115.757 82.163C109.932 96.8159 98.5737 108.587 84.1378 114.931C69.702 121.274 53.3493 121.68 38.6166 116.06C23.8839 110.441 11.9555 99.2474 5.41134 84.9014C-1.13278 70.5554 -1.76656 54.2099 3.64708 39.4003C9.06071 24.5907 20.0866 12.5074 34.3399 5.76385C46.409 0.0537625 59.9706 -1.43907 72.8798 1.3985C76.7689 2.25335 78.7461 6.41224 77.4313 10.1708C76.1165 13.9293 72.004 15.8487 68.0853 15.1424C58.7946 13.4678 49.1472 14.7104 40.5068 18.7983C29.6789 23.9212 21.3029 33.1005 17.1903 44.351C13.0777 55.6014 13.5592 68.0186 18.5306 78.9169C23.5019 89.8151 32.5636 98.3183 43.7556 102.587C54.9476 106.856 67.3703 106.548 78.3368 101.729C89.3033 96.9102 97.932 87.968 102.357 76.8366C106.781 65.7052 106.646 53.2794 101.981 42.2468C98.2577 33.443 91.8886 26.091 83.8428 21.1529C80.4491 19.07 78.6596 14.8994 80.1819 11.22Z" fill="#E7F0EC"/>
<path d="M64.1656 7.37446C64.4798 3.40498 67.9674 0.398162 71.8706 1.18595C79.39 2.70362 86.5714 5.65397 93.014 9.89933C101.47 15.4713 108.378 23.0929 113.094 32.0541C117.811 41.0152 120.183 51.0244 119.989 61.1492C119.795 71.2739 117.042 81.1849 111.985 89.9589C106.929 98.7328 99.734 106.084 91.071 111.328C82.4079 116.572 72.5585 119.538 62.4403 119.95C52.322 120.362 42.2641 118.206 33.2035 113.684C26.3001 110.238 20.1468 105.504 15.0637 99.7584C12.4251 96.7762 13.2782 92.2511 16.5551 89.9891C19.8321 87.727 24.2857 88.5991 27.0357 91.4789C30.6574 95.2714 34.9192 98.4239 39.6435 100.782C46.5265 104.218 54.1672 105.855 61.8538 105.543C69.5404 105.23 77.0227 102.976 83.6037 98.9926C90.1848 95.0089 95.6505 89.4242 99.4917 82.7589C103.333 76.0936 105.425 68.5645 105.572 60.873C105.719 53.1815 103.917 45.5778 100.334 38.7703C96.7513 31.9627 91.5035 26.1729 85.0798 21.94C80.6709 19.0347 75.8065 16.9278 70.7093 15.6956C66.8388 14.7601 63.8514 11.3439 64.1656 7.37446Z" fill="#008080"/>
<path d="M41.9183 70.416C40.5103 70.416 39.2196 70.0693 38.0463 69.376C36.8836 68.672 35.9503 67.7333 35.2463 66.56C34.5529 65.3867 34.2063 64.0907 34.2063 62.672C34.2063 61.8507 34.3023 61.152 34.4943 60.576C34.6863 59.9893 34.9689 59.3387 35.3423 58.624L41.6943 47.6H44.3023L39.6463 55.664C40.5849 55.3013 41.5289 55.1413 42.4783 55.184C43.4276 55.216 44.3343 55.424 45.1983 55.808C46.0623 56.192 46.8303 56.72 47.5023 57.392C48.1743 58.0533 48.7023 58.832 49.0863 59.728C49.4809 60.624 49.6783 61.6053 49.6783 62.672C49.6783 63.7387 49.4756 64.7413 49.0703 65.68C48.6649 66.608 48.1049 67.4293 47.3903 68.144C46.6863 68.848 45.8649 69.4027 44.9263 69.808C43.9876 70.2133 42.9849 70.416 41.9183 70.416ZM41.9183 68.176C42.9849 68.176 43.9343 67.92 44.7663 67.408C45.5983 66.8853 46.2489 66.2027 46.7183 65.36C47.1983 64.5173 47.4383 63.616 47.4383 62.656C47.4383 61.6533 47.1929 60.7413 46.7023 59.92C46.2116 59.088 45.5503 58.4267 44.7183 57.936C43.8863 57.4347 42.9636 57.184 41.9503 57.184C40.9049 57.184 39.9663 57.44 39.1343 57.952C38.3023 58.464 37.6463 59.136 37.1663 59.968C36.6863 60.7893 36.4463 61.6853 36.4463 62.656C36.4463 63.7013 36.6969 64.64 37.1983 65.472C37.7103 66.304 38.3823 66.9653 39.2143 67.456C40.0463 67.936 40.9476 68.176 41.9183 68.176ZM61.569 70V63.712H51.905V61.44L60.993 47.6H63.809V61.472H66.161V63.712H63.809V70H61.569ZM54.561 61.44L61.569 61.472L61.521 50.8L54.561 61.44ZM70.5738 70L83.5018 47.6H86.0938L73.1658 70H70.5738ZM73.1978 56.352C72.4938 56.352 71.8538 56.1813 71.2778 55.84C70.7018 55.4987 70.2378 55.04 69.8858 54.464C69.5444 53.8773 69.3738 53.232 69.3738 52.528C69.3738 51.8027 69.5444 51.152 69.8858 50.576C70.2378 50 70.7018 49.5413 71.2778 49.2C71.8644 48.8587 72.5044 48.688 73.1978 48.688C73.9018 48.688 74.5418 48.864 75.1178 49.216C75.6938 49.5573 76.1524 50.016 76.4938 50.592C76.8458 51.168 77.0218 51.8133 77.0218 52.528C77.0218 53.2427 76.8458 53.888 76.4938 54.464C76.1524 55.04 75.6884 55.4987 75.1018 55.84C74.5258 56.1813 73.8911 56.352 73.1978 56.352ZM73.1978 54.64C73.7951 54.64 74.2964 54.4373 74.7018 54.032C75.1071 53.616 75.3098 53.1147 75.3098 52.528C75.3098 51.9307 75.1071 51.4293 74.7018 51.024C74.2964 50.608 73.7951 50.4 73.1978 50.4C72.6111 50.4 72.1098 50.608 71.6938 51.024C71.2884 51.4293 71.0858 51.9307 71.0858 52.528C71.0858 53.1147 71.2884 53.616 71.6938 54.032C72.1098 54.4373 72.6111 54.64 73.1978 54.64ZM83.5018 68.928C82.7978 68.928 82.1524 68.752 81.5658 68.4C80.9898 68.0373 80.5258 67.568 80.1738 66.992C79.8324 66.4053 79.6618 65.7707 79.6618 65.088C79.6618 64.3733 79.8378 63.728 80.1898 63.152C80.5418 62.5653 81.0058 62.1013 81.5818 61.76C82.1684 61.4187 82.8084 61.248 83.5018 61.248C84.2164 61.248 84.8618 61.424 85.4378 61.776C86.0138 62.128 86.4724 62.5973 86.8138 63.184C87.1551 63.76 87.3258 64.3947 87.3258 65.088C87.3258 65.792 87.1551 66.4373 86.8138 67.024C86.4724 67.6 86.0084 68.064 85.4218 68.416C84.8458 68.7573 84.2058 68.928 83.5018 68.928ZM83.5018 67.216C84.0778 67.216 84.5738 67.008 84.9897 66.592C85.4058 66.176 85.6138 65.6747 85.6138 65.088C85.6138 64.5013 85.4058 64 84.9897 63.584C84.5738 63.168 84.0778 62.96 83.5018 62.96C82.9151 62.96 82.4084 63.168 81.9818 63.584C81.5658 64 81.3578 64.5013 81.3578 65.088C81.3578 65.6747 81.5658 66.176 81.9818 66.592C82.4084 67.008 82.9151 67.216 83.5018 67.216Z" fill="#3F444E"/>
<circle cx="14.5" cy="88.5" r="9.5" fill="#008080" stroke="white" stroke-width="2"/>
<circle cx="71" cy="9" r="2" fill="#E9F1F6"/>
<path d="M10.7662 88.3685L13.574 91.1764L18.7217 86.029" stroke="white" stroke-width="1.5" stroke-linecap="square"/>
</svg>
