<svg width="44" height="44" viewBox="0 0 52 53" fill="none" xmlns="http://www.w3.org/2000/svg">
<circle cx="26.0681" cy="26.3777" r="14.8972" fill="#dc3545"/>
<path d="M31.5049 38.8569C30.8493 38.8684 30.3026 38.3528 30.2785 37.6948C30.2774 37.6624 30.2775 37.63 30.2789 37.5976L30.6218 29.8231C30.6319 29.5932 30.574 29.3655 30.4552 29.1685C30.3364 28.9715 30.1621 28.8139 29.9541 28.7156L29.8789 28.68L29.7932 28.6362C29.7597 28.6188 29.7246 28.5985 29.6828 28.5756C29.5202 28.4838 29.3109 28.3482 29.0904 28.1738C28.8745 27.9992 28.6563 27.7857 28.4733 27.5382C28.2914 27.2907 28.1468 27.0093 28.0669 26.6995C27.9808 26.3899 28.0018 26.0503 27.9854 25.6925C27.9784 25.3344 27.9732 24.9566 27.977 24.5655C27.9765 24.3701 27.982 24.1711 27.986 23.9698C27.9888 23.7685 27.9981 23.5645 28.0053 23.359C28.021 22.9479 28.0471 22.53 28.0774 22.1118C28.1119 21.6936 28.1492 21.2752 28.1988 20.8628C28.2454 20.4506 28.3033 20.0445 28.3645 19.6513C28.4263 19.2581 28.4967 18.8776 28.5686 18.5166C28.6063 18.336 28.6421 18.1604 28.6832 17.9903C28.7231 17.8203 28.7593 17.656 28.7984 17.4982L28.9168 17.0451C28.9546 16.9012 28.9974 16.7644 29.0338 16.636C29.0696 16.5076 29.1092 16.3872 29.1449 16.2759L29.1961 16.116L29.2464 15.9701C29.2957 15.8258 29.3483 15.6826 29.4041 15.5407L29.4666 15.3886L29.6543 14.9319C29.8904 14.3575 30.5374 14.0506 31.1206 14.2642C31.5749 14.4306 31.8567 14.8509 31.8739 15.3006L32.2779 26.3489L32.686 37.5095L32.6886 37.5794C32.7134 38.2553 32.1811 38.845 31.5049 38.8569Z" fill="white"/>
<path d="M24.5467 16.0738C24.5137 15.9069 24.4869 15.7536 24.457 15.6186C24.4102 15.4006 24.3633 15.1827 24.3163 14.9647C24.2526 14.6737 23.9411 14.4828 23.6329 14.6031C23.4236 14.6849 23.2992 14.902 23.3221 15.1256L23.323 15.1341L23.3537 15.4348L23.389 15.7795C23.4034 15.9124 23.4129 16.0633 23.427 16.2273C23.4399 16.3914 23.4563 16.5687 23.4661 16.7572C23.4766 16.9455 23.4914 17.1434 23.5 17.3488C23.5078 17.5543 23.5189 17.7661 23.5247 17.9817C23.5289 18.1973 23.5371 18.4159 23.5381 18.6348C23.539 18.8536 23.5429 19.0721 23.5393 19.2872L23.5364 19.6067L23.5291 19.9181C23.5255 20.1225 23.5159 20.3197 23.5092 20.5066C23.5055 20.5857 23.4987 20.7104 23.492 20.8317C23.4867 20.9268 23.4452 21.0163 23.3761 21.082C23.307 21.1476 23.2154 21.1843 23.1201 21.1847C23.0246 21.1851 22.9325 21.1488 22.8628 21.0834C22.7931 21.0179 22.7512 20.9283 22.7455 20.8329L22.4044 15.0549C22.3874 14.7849 22.1562 14.5653 21.8721 14.5807C21.6117 14.5949 21.4092 14.8147 21.3959 15.0751L21.0984 20.8698C21.0939 20.9568 21.0563 21.0387 20.9933 21.0989C20.9303 21.159 20.8467 21.1928 20.7596 21.1934C20.6725 21.194 20.5885 21.1612 20.5248 21.1019C20.4611 21.0425 20.4224 20.961 20.4168 20.8741C20.4085 20.7437 20.3998 20.6043 20.3951 20.5185C20.3869 20.3317 20.3759 20.1346 20.3707 19.9302L20.3609 19.6189L20.3556 19.2994C20.3504 19.0843 20.3526 18.8658 20.3518 18.647C20.351 18.4281 20.3577 18.2095 20.3602 17.9938C20.3644 17.7782 20.3738 17.5664 20.3801 17.3608C20.3871 17.1554 20.4004 16.9573 20.4094 16.7689C20.4178 16.5804 20.4328 16.403 20.4444 16.2388C20.4572 16.0747 20.4656 15.9237 20.4789 15.7907L20.5116 15.4457L20.5401 15.1449L20.5415 15.1304C20.5643 14.8785 20.395 14.6442 20.1415 14.5917C19.8688 14.5352 19.6019 14.7104 19.5454 14.9831L19.4822 15.2879L19.4097 15.6381C19.3809 15.7734 19.3552 15.9268 19.3235 16.0939C19.293 16.2612 19.2575 16.4422 19.2275 16.6347C19.1968 16.8271 19.1607 17.0299 19.1301 17.2404C19.1003 17.451 19.0665 17.6685 19.0377 17.8903C19.0105 18.1121 18.9789 18.3374 18.9547 18.5635C18.9305 18.7895 18.9034 19.0156 18.8842 19.2389L18.8532 19.5707L18.8276 19.8952C18.8096 20.1083 18.7983 20.315 18.7854 20.511C18.7745 20.7073 18.7646 20.8929 18.7579 21.065C18.7514 21.2218 18.7463 21.3788 18.7427 21.5357C18.7385 21.676 18.794 22.546 18.8443 22.6403C19.0056 24.1023 19.9613 25.2868 21.2106 25.6373L20.8312 37.5941C20.8304 37.6226 20.8305 37.6512 20.8315 37.6798C20.8578 38.3448 21.4182 38.8628 22.0832 38.8365C22.7483 38.8103 23.2662 38.2499 23.24 37.5848L22.7688 25.6315C24.0439 25.2633 25.0052 24.0248 25.1213 22.5158C25.1575 22.4192 25.1793 21.98 25.1783 21.877C25.176 21.7753 25.1747 21.6513 25.1695 21.5111C25.1656 21.3704 25.1588 21.2124 25.1507 21.0405C25.1426 20.8685 25.1313 20.6829 25.119 20.4867C25.1045 20.2908 25.0916 20.0842 25.072 19.8713L25.0439 19.547L25.0104 19.2154C24.9894 18.9923 24.9606 18.7664 24.9347 18.5406C24.9087 18.3147 24.8754 18.0896 24.8465 17.868C24.8159 17.6465 24.7805 17.4292 24.7491 17.2188C24.7169 17.0086 24.6792 16.8061 24.647 16.614C24.6154 16.4215 24.5785 16.2408 24.5467 16.0738Z" fill="white"/>
<path d="M28.7429 0.554692C29.5057 0.554692 30.188 1.0295 30.4449 1.74041L32.2766 6.81797C32.933 6.98143 33.496 7.14488 33.9734 7.31612C34.4949 7.50293 35.1669 7.78574 35.9971 8.17233L40.2625 5.91506C40.6106 5.7306 41.0092 5.66402 41.3984 5.7253C41.7876 5.78659 42.1465 5.97243 42.4211 6.25495L46.1728 10.1338C46.6709 10.6501 46.811 11.4052 46.5308 12.0642L44.5304 16.7526C44.8625 17.3623 45.1272 17.8838 45.3295 18.3197C45.5475 18.7945 45.8173 19.4483 46.139 20.2915L50.8014 22.2893C51.5019 22.5877 51.9352 23.2883 51.8885 24.0381L51.546 29.4218C51.5226 29.7716 51.397 30.1067 51.1848 30.3858C50.9727 30.6648 50.6833 30.8755 50.3525 30.9915L45.9367 32.5612C45.8095 33.1709 45.6772 33.6925 45.5371 34.1335C45.3111 34.8147 45.0531 35.4849 44.7639 36.1417L46.9822 41.0454C47.1388 41.39 47.181 41.7756 47.1025 42.1458C47.0241 42.5161 46.8292 42.8515 46.5464 43.1029L42.3277 46.8702C42.0499 47.1173 41.7032 47.2736 41.3341 47.3181C40.965 47.3626 40.5911 47.2932 40.2625 47.1193L35.9141 44.8153C35.2338 45.1756 34.5319 45.4936 33.8125 45.7676L31.9134 46.4785L30.2269 51.1487C30.102 51.4907 29.8765 51.7869 29.5802 51.9985C29.2839 52.2101 28.9305 52.3272 28.5665 52.3344L23.6369 52.446C23.2632 52.4558 22.8956 52.3495 22.5848 52.1418C22.274 51.9341 22.0351 51.6352 21.9012 51.2862L19.9138 46.027C19.2357 45.7953 18.5643 45.5444 17.9004 45.2746C17.3575 45.0396 16.8227 44.786 16.297 44.5144L11.3675 46.6212C11.0427 46.7597 10.6846 46.8009 10.3368 46.7396C9.98901 46.6784 9.66653 46.5173 9.40863 46.2761L5.76075 42.8539C5.48916 42.6002 5.3042 42.2675 5.23204 41.9029C5.15987 41.5384 5.20415 41.1603 5.35861 40.8223L7.47832 36.204C7.19641 35.657 6.93504 35.0996 6.69478 34.5331C6.41431 33.8396 6.15475 33.1379 5.91642 32.4289L1.27226 31.0149C0.894762 30.9008 0.565503 30.6652 0.335618 30.3448C0.105733 30.0243 -0.0119122 29.6369 0.0009534 29.2428L0.182569 24.2586C0.195496 23.9334 0.297082 23.6179 0.476339 23.3463C0.655597 23.0747 0.905705 22.8572 1.19961 22.7175L6.07209 20.3772C6.29782 19.5495 6.495 18.906 6.66883 18.4364C6.9136 17.8092 7.18541 17.1928 7.48351 16.5891L5.37158 12.1264C5.2113 11.7875 5.16263 11.4066 5.23256 11.0382C5.30249 10.6699 5.48742 10.3333 5.76075 10.0767L9.40344 6.63635C9.65879 6.3955 9.9783 6.23358 10.3235 6.17005C10.6687 6.10653 11.025 6.14412 11.3493 6.2783L16.2737 8.31244C16.8185 7.9492 17.3115 7.65601 17.7577 7.41991C18.2896 7.1371 19.0005 6.84132 19.8956 6.52219L21.608 1.7456C21.7346 1.39603 21.966 1.09405 22.2706 0.88091C22.5752 0.667765 22.9382 0.553841 23.31 0.554692H28.7429ZM27.4716 4.12741H24.5839L23.0142 8.5226C22.9219 8.77888 22.7726 9.01084 22.5775 9.20096C22.3825 9.39109 22.1468 9.53441 21.8882 9.6201C20.757 9.99631 19.9397 10.3206 19.4623 10.5723C18.9564 10.8395 18.3104 11.2469 17.5424 11.7917C17.291 11.9682 16.9992 12.0782 16.694 12.1118C16.3887 12.1454 16.08 12.1013 15.7963 11.9837L11.0484 10.0248L9.19847 11.7736L11.1262 15.847C11.2416 16.0894 11.3002 16.3549 11.2975 16.6233C11.2948 16.8917 11.2309 17.156 11.1106 17.396C10.5917 18.4364 10.2415 19.2044 10.065 19.6766C9.79449 20.4627 9.56073 21.261 9.36452 22.0688C9.29934 22.3217 9.17963 22.5572 9.0138 22.7589C8.84797 22.9606 8.64003 23.1235 8.40455 23.2364L3.76039 25.4651L3.66699 28.0078L7.87009 29.2843C8.4279 29.4529 8.86897 29.881 9.05318 30.4311C9.4683 31.6765 9.8004 32.595 10.0391 33.1709C10.3554 33.9019 10.7051 34.6179 11.0873 35.3167C11.2166 35.5571 11.2883 35.8242 11.2968 36.097C11.3054 36.3698 11.2505 36.6409 11.1366 36.889L9.18809 41.1389L11.0328 42.872L15.6562 40.895C15.9052 40.7885 16.1748 40.7389 16.4455 40.7497C16.7161 40.7604 16.9809 40.8314 17.2207 40.9572C18.1677 41.4554 18.8734 41.8005 19.3196 41.9899C19.7737 42.1793 20.6428 42.4958 21.9038 42.9265C22.1541 43.012 22.3825 43.1516 22.5726 43.3355C22.7628 43.5194 22.91 43.743 23.0038 43.9903L24.8407 48.8447L27.2433 48.7928L28.7922 44.5014C28.8808 44.2565 29.0216 44.0338 29.2048 43.8488C29.388 43.6638 29.6093 43.5208 29.8533 43.4299L32.5438 42.4232C33.2236 42.1715 34.0486 41.7745 35.0112 41.2297C35.2776 41.08 35.5773 40.9997 35.8829 40.996C36.1884 40.9924 36.49 41.0656 36.7599 41.2089L40.8514 43.3754L43.1528 41.3231L41.1394 36.8786C41.036 36.6504 40.9823 36.4029 40.9819 36.1524C40.9814 35.9019 41.0342 35.6542 41.1368 35.4256C41.609 34.3696 41.9282 33.5731 42.089 33.0646C42.2473 32.5664 42.4107 31.8477 42.569 30.9241C42.6234 30.6103 42.7606 30.3168 42.9662 30.0737C43.1719 29.8306 43.4387 29.6468 43.7391 29.5412L48.0149 28.0233L48.2017 25.0655L43.9986 23.2649C43.7748 23.1696 43.5727 23.0299 43.4046 22.8542C43.2364 22.6785 43.1057 22.4704 43.0204 22.2426C42.7207 21.4156 42.3936 20.5987 42.0397 19.7934C41.7047 19.0921 41.3411 18.4049 40.95 17.7333C40.8145 17.496 40.7358 17.2306 40.7201 16.9578C40.7043 16.685 40.7519 16.4123 40.8592 16.161L42.7402 11.7502L40.758 9.70053L36.8974 11.745C36.6454 11.8787 36.3655 11.9514 36.0803 11.9573C35.795 11.9631 35.5124 11.902 35.2551 11.7788C34.4356 11.3713 33.5976 11.0025 32.7436 10.6735C32.0154 10.429 31.2729 10.2297 30.5201 10.0767C30.2214 10.0134 29.9438 9.87517 29.7132 9.67502C29.4826 9.47486 29.3068 9.21936 29.2021 8.93254L27.469 4.12481L27.4716 4.12741Z" fill="#dc3545"/>
<defs>
<linearGradient id="paint0_linear_7999_9076" x1="25.9459" y1="0.554688" x2="25.9459" y2="52.4466" gradientUnits="userSpaceOnUse">
<stop stop-color="#FF442E"/>
<stop offset="1" stop-color="#FF4747"/>
</linearGradient>
</defs>
</svg>
