<svg width="122" height="120" viewBox="0 0 122 120" fill="none" xmlns="http://www.w3.org/2000/svg">
<path d="M80.1819 11.22C81.7042 7.54056 85.9489 5.75496 89.4193 7.70729C100.939 14.1878 110.061 24.3331 115.262 36.6304C121.403 51.1533 121.581 67.5101 115.757 82.163C109.932 96.8159 98.5737 108.587 84.1378 114.931C69.702 121.274 53.3493 121.68 38.6166 116.06C23.8839 110.441 11.9555 99.2474 5.41134 84.9014C-1.13278 70.5554 -1.76656 54.2099 3.64708 39.4003C9.06071 24.5907 20.0866 12.5074 34.3399 5.76385C46.409 0.0537625 59.9706 -1.43907 72.8798 1.3985C76.7689 2.25335 78.7461 6.41224 77.4313 10.1708C76.1165 13.9293 72.004 15.8487 68.0853 15.1424C58.7946 13.4678 49.1472 14.7104 40.5068 18.7983C29.6789 23.9212 21.3029 33.1005 17.1903 44.351C13.0777 55.6014 13.5592 68.0186 18.5306 78.9169C23.5019 89.8151 32.5636 98.3183 43.7556 102.587C54.9476 106.856 67.3703 106.548 78.3368 101.729C89.3033 96.9102 97.932 87.968 102.357 76.8366C106.781 65.7052 106.646 53.2794 101.981 42.2468C98.2577 33.443 91.8886 26.091 83.8428 21.1529C80.4491 19.07 78.6596 14.8994 80.1819 11.22Z" fill="#F3EDEE"/>
<path d="M64.1656 7.37446C64.4798 3.40498 67.9673 0.398164 71.8705 1.18595C77.945 2.41199 83.8076 4.5747 89.244 7.60927C96.7845 11.8183 103.328 17.6055 108.426 24.5754C113.525 31.5453 117.059 39.5336 118.787 47.9947C120.032 54.0948 120.318 60.337 119.647 66.4976C119.216 70.4561 115.294 72.8693 111.416 71.9667C107.538 71.064 105.187 67.1824 105.467 63.2103C105.758 59.0936 105.489 54.9453 104.659 50.8799C103.346 44.4523 100.661 38.3838 96.788 33.0889C92.9147 27.7941 87.9441 23.3977 82.2158 20.2003C78.5928 18.1779 74.7207 16.6653 70.7092 15.6957C66.8388 14.7601 63.8514 11.3439 64.1656 7.37446Z" fill="#FF4747"/>
<path d="M112.269 67.3987C116.212 67.9568 118.998 71.6229 117.971 75.4701C116.374 81.4576 113.854 87.1758 110.49 92.4151C105.825 99.682 99.6456 105.856 92.375 110.516C85.1043 115.176 76.9134 118.211 68.362 119.414C62.1967 120.282 55.9488 120.183 49.8412 119.134C45.9168 118.46 43.7497 114.397 44.8895 110.581C46.0292 106.766 50.0484 104.659 53.9956 105.183C58.0866 105.727 62.2436 105.714 66.3524 105.135C72.8486 104.221 79.071 101.915 84.5943 98.3755C90.1177 94.8357 94.8118 90.1453 98.356 84.6248C100.598 81.1332 102.346 77.3616 103.561 73.4175C104.733 69.612 108.327 66.8406 112.269 67.3987Z" fill="#F1D2D2"/>
<path d="M34.4519 70V68.016C35.3265 67.2053 36.2865 66.32 37.3319 65.36C38.3772 64.3893 39.4119 63.392 40.4359 62.368C41.4705 61.3333 42.4145 60.3147 43.2679 59.312C44.1212 58.2987 44.8039 57.344 45.3159 56.448C45.8385 55.5413 46.0999 54.7413 46.0999 54.048C46.0999 53.2053 45.8919 52.4373 45.4759 51.744C45.0705 51.04 44.5212 50.48 43.8279 50.064C43.1452 49.6373 42.3825 49.424 41.5399 49.424C40.6972 49.424 39.9239 49.6373 39.2199 50.064C38.5265 50.48 37.9719 51.04 37.5559 51.744C37.1399 52.4373 36.9319 53.2053 36.9319 54.048H34.6919C34.6919 52.768 35.0012 51.6107 35.6199 50.576C36.2492 49.5413 37.0812 48.72 38.1159 48.112C39.1505 47.4933 40.2919 47.184 41.5399 47.184C42.7879 47.184 43.9239 47.4933 44.9479 48.112C45.9825 48.7307 46.8039 49.5573 47.4119 50.592C48.0305 51.6267 48.3399 52.7787 48.3399 54.048C48.3399 54.8053 48.1372 55.6373 47.7319 56.544C47.3372 57.44 46.7985 58.3733 46.1159 59.344C45.4332 60.304 44.6652 61.2747 43.8119 62.256C42.9585 63.2373 42.0679 64.1973 41.1399 65.136C40.2119 66.064 39.3105 66.9387 38.4359 67.76H48.6759V70H34.4519ZM59.0734 70.416C57.708 70.416 56.4654 70.0853 55.3454 69.424C54.236 68.7627 53.356 67.8773 52.7054 66.768C52.0547 65.648 51.7294 64.4213 51.7294 63.088H53.9694C53.9694 64.016 54.1987 64.8693 54.6574 65.648C55.116 66.416 55.7294 67.0293 56.4974 67.488C57.276 67.9467 58.1347 68.176 59.0734 68.176C60.0014 68.176 60.8494 67.9467 61.6174 67.488C62.3854 67.0293 62.9987 66.416 63.4574 65.648C63.9267 64.8693 64.1614 64.016 64.1614 63.088C64.1614 62.1493 63.9374 61.296 63.4894 60.528C63.052 59.7493 62.428 59.1307 61.6174 58.672C60.8174 58.2027 59.8627 57.968 58.7534 57.968H53.3134L55.4254 47.6H65.9054V49.84H57.2334L56.0654 55.728L58.6734 55.744C60.1987 55.7653 61.5374 56.0907 62.6894 56.72C63.852 57.3493 64.7587 58.2133 65.4094 59.312C66.0707 60.4 66.4014 61.6587 66.4014 63.088C66.4014 64.0907 66.2094 65.0347 65.8254 65.92C65.452 66.8053 64.924 67.5893 64.2414 68.272C63.5694 68.944 62.7907 69.472 61.9054 69.856C61.0307 70.2293 60.0867 70.416 59.0734 70.416ZM70.8081 70L83.7361 47.6H86.3281L73.4001 70H70.8081ZM73.4321 56.352C72.7281 56.352 72.0881 56.1813 71.5121 55.84C70.9361 55.4987 70.4721 55.04 70.1201 54.464C69.7788 53.8773 69.6081 53.232 69.6081 52.528C69.6081 51.8027 69.7788 51.152 70.1201 50.576C70.4721 50 70.9361 49.5413 71.5121 49.2C72.0988 48.8587 72.7388 48.688 73.4321 48.688C74.1361 48.688 74.7761 48.864 75.3521 49.216C75.9281 49.5573 76.3868 50.016 76.7281 50.592C77.0801 51.168 77.2561 51.8133 77.2561 52.528C77.2561 53.2427 77.0801 53.888 76.7281 54.464C76.3868 55.04 75.9228 55.4987 75.3361 55.84C74.7601 56.1813 74.1255 56.352 73.4321 56.352ZM73.4321 54.64C74.0295 54.64 74.5308 54.4373 74.9361 54.032C75.3415 53.616 75.5441 53.1147 75.5441 52.528C75.5441 51.9307 75.3415 51.4293 74.9361 51.024C74.5308 50.608 74.0295 50.4 73.4321 50.4C72.8455 50.4 72.3441 50.608 71.9281 51.024C71.5228 51.4293 71.3201 51.9307 71.3201 52.528C71.3201 53.1147 71.5228 53.616 71.9281 54.032C72.3441 54.4373 72.8455 54.64 73.4321 54.64ZM83.7361 68.928C83.0321 68.928 82.3868 68.752 81.8001 68.4C81.2241 68.0373 80.7601 67.568 80.4081 66.992C80.0668 66.4053 79.8961 65.7707 79.8961 65.088C79.8961 64.3733 80.0721 63.728 80.4241 63.152C80.7761 62.5653 81.2401 62.1013 81.8161 61.76C82.4028 61.4187 83.0428 61.248 83.7361 61.248C84.4508 61.248 85.0961 61.424 85.6721 61.776C86.2481 62.128 86.7068 62.5973 87.0481 63.184C87.3895 63.76 87.5601 64.3947 87.5601 65.088C87.5601 65.792 87.3895 66.4373 87.0481 67.024C86.7068 67.6 86.2428 68.064 85.6561 68.416C85.0801 68.7573 84.4401 68.928 83.7361 68.928ZM83.7361 67.216C84.3121 67.216 84.8081 67.008 85.2241 66.592C85.6401 66.176 85.8481 65.6747 85.8481 65.088C85.8481 64.5013 85.6401 64 85.2241 63.584C84.8081 63.168 84.3121 62.96 83.7361 62.96C83.1495 62.96 82.6428 63.168 82.2161 63.584C81.8001 64 81.5921 64.5013 81.5921 65.088C81.5921 65.6747 81.8001 66.176 82.2161 66.592C82.6428 67.008 83.1495 67.216 83.7361 67.216Z" fill="#3F444E"/>
<circle cx="111.5" cy="66.5" r="9.5" fill="#FF4747" stroke="white" stroke-width="2"/>
<circle cx="71" cy="9" r="2" fill="#E9F1F6"/>
<path d="M107.766 66.3685L110.574 69.1764L115.722 64.029" stroke="white" stroke-width="1.5" stroke-linecap="square"/>
</svg>
