<svg width="120" height="120" viewBox="0 0 120 120" fill="none" xmlns="http://www.w3.org/2000/svg">
<path d="M80.1819 11.22C81.7042 7.54056 79.962 3.27809 76.1266 2.20785C70.0844 0.521806 63.8005 -0.210308 57.5032 0.051974C48.7982 0.414535 40.2767 2.66853 32.5309 6.65728C24.7851 10.646 18.0009 16.2738 12.6498 23.1494C7.29884 30.0251 3.50943 37.9836 1.54501 46.4717C-0.419407 54.9599 -0.511688 63.774 1.27458 72.3014C3.06085 80.8288 6.68281 88.8649 11.8887 95.8511C17.0946 102.837 23.7594 108.606 31.42 112.756C36.9618 115.758 42.9285 117.861 49.0971 119.001C53.0127 119.725 56.4504 116.661 56.6994 112.687C56.9483 108.713 53.9052 105.346 50.0199 104.474C45.9368 103.558 41.9881 102.081 38.2886 100.077C32.4691 96.9245 27.406 92.5422 23.4512 87.2351C19.4964 81.9279 16.7449 75.8231 15.388 69.345C14.031 62.867 14.1011 56.1712 15.5934 49.723C17.0857 43.2748 19.9644 37.2289 24.0294 32.0057C28.0944 26.7825 33.2482 22.5072 39.1325 19.4771C45.0167 16.4469 51.4903 14.7346 58.1032 14.4592C62.3071 14.2841 66.5031 14.6923 70.5735 15.6631C74.4468 16.5868 78.6596 14.8994 80.1819 11.22Z" fill="#F2EDE5"/>
<path d="M64.1656 7.37446C64.4798 3.40498 67.9673 0.398165 71.8705 1.18596C78.5065 2.52531 84.8855 4.9817 90.7297 8.46667C98.6441 13.1861 105.365 19.6649 110.372 27.4008C115.378 35.1367 118.535 43.9219 119.599 53.0749C120.663 62.228 119.604 71.503 116.504 80.1807C113.405 88.8585 108.349 96.7058 101.727 103.114C95.1059 109.523 87.0975 114.32 78.3231 117.134C69.5486 119.948 60.2439 120.703 51.1306 119.341C44.4009 118.335 37.9091 116.194 31.9261 113.027C28.4069 111.164 27.6133 106.628 29.8848 103.358C32.1564 100.087 36.632 99.3365 40.2194 101.064C44.3287 103.044 48.7242 104.401 53.2621 105.08C60.1853 106.114 67.2538 105.541 73.9195 103.403C80.5852 101.265 86.669 97.6209 91.699 92.7526C96.7291 87.8844 100.57 81.923 102.925 75.3307C105.279 68.7385 106.084 61.6925 105.276 54.7392C104.468 47.7859 102.069 41.1121 98.2658 35.2353C94.4625 29.3586 89.3568 24.4368 83.3445 20.8516C79.4036 18.5016 75.1427 16.7673 70.7092 15.6957C66.8388 14.7601 63.8514 11.3439 64.1656 7.37446Z" fill="#DF943D"/>
<path d="M45.5456 70V68.016C46.4203 67.2053 47.3803 66.32 48.4256 65.36C49.471 64.3893 50.5056 63.392 51.5296 62.368C52.5643 61.3333 53.5083 60.3147 54.3616 59.312C55.215 58.2987 55.8976 57.344 56.4096 56.448C56.9323 55.5413 57.1936 54.7413 57.1936 54.048C57.1936 53.2053 56.9856 52.4373 56.5696 51.744C56.1643 51.04 55.615 50.48 54.9216 50.064C54.239 49.6373 53.4763 49.424 52.6336 49.424C51.791 49.424 51.0176 49.6373 50.3136 50.064C49.6203 50.48 49.0656 51.04 48.6496 51.744C48.2336 52.4373 48.0256 53.2053 48.0256 54.048H45.7856C45.7856 52.768 46.095 51.6107 46.7136 50.576C47.343 49.5413 48.175 48.72 49.2096 48.112C50.2443 47.4933 51.3856 47.184 52.6336 47.184C53.8816 47.184 55.0176 47.4933 56.0416 48.112C57.0763 48.7307 57.8976 49.5573 58.5056 50.592C59.1243 51.6267 59.4336 52.7787 59.4336 54.048C59.4336 54.8053 59.231 55.6373 58.8256 56.544C58.431 57.44 57.8923 58.3733 57.2096 59.344C56.527 60.304 55.759 61.2747 54.9056 62.256C54.0523 63.2373 53.1616 64.1973 52.2336 65.136C51.3056 66.064 50.4043 66.9387 49.5296 67.76H59.7696V70H45.5456ZM62.9831 70L68.8391 61.968L62.9991 53.952H65.7671L70.2311 60.048L74.6791 53.952H77.4311L71.6071 61.968L77.4631 70H74.6951L70.2311 63.856L65.7511 70H62.9831Z" fill="#3F444E"/>
<circle cx="34.5" cy="106.5" r="9.5" fill="#DF943D" stroke="white" stroke-width="2"/>
<path d="M30.7662 106.369L33.574 109.176L38.7217 104.029" stroke="white" stroke-width="1.5" stroke-linecap="square"/>
<circle cx="71" cy="9" r="2" fill="#E9F1F6"/>
</svg>
